<?xml version="1.0" encoding="UTF-8"?>
<svg version="1.1" xmlns="http://www.w3.org/2000/svg" width="510" height="510">
<path d="M0 0 C168.3 0 336.6 0 510 0 C510 168.3 510 336.6 510 510 C341.7 510 173.4 510 0 510 C0 341.7 0 173.4 0 0 Z " fill="#1E1F20" transform="translate(0,0)"/>
<path d="M0 0 C1.40186302 -0.00639748 1.40186302 -0.00639748 2.83204651 -0.01292419 C3.86615662 -0.01247101 4.90026672 -0.01201782 5.9657135 -0.0115509 C7.5904232 -0.01658882 7.5904232 -0.01658882 9.24795532 -0.02172852 C12.85709256 -0.03128467 16.46618351 -0.03318499 20.07533264 -0.03425598 C22.58669046 -0.03746907 25.09804809 -0.04083318 27.60940552 -0.04434204 C32.89484668 -0.05034754 38.18027059 -0.05222361 43.4657135 -0.05158997 C48.86515784 -0.05105942 54.26452994 -0.05800753 59.66395569 -0.07209778 C66.19444772 -0.08889254 72.72487521 -0.09564114 79.25538826 -0.09498024 C81.73295519 -0.09615112 84.21052297 -0.10052206 86.68807793 -0.10831261 C103.90540605 -0.15731401 121.10565467 -0.0883536 137.86048889 4.38371277 C138.68798645 4.59914734 139.51548401 4.81458191 140.36805725 5.0365448 C156.97514375 9.51784753 170.54875188 16.99431407 183.67298889 28.13371277 C184.57017639 28.88394714 185.46736389 29.63418152 186.39173889 30.40715027 C210.01762406 50.91388767 221.18453957 79.6009123 224.67298889 110.13371277 C225.95345333 128.96407214 224.50794798 146.90543966 219.67298889 165.13371277 C219.47544006 165.88169128 219.27789124 166.6296698 219.07435608 167.40031433 C209.70993288 201.41306388 185.31962395 228.1971528 155.17225647 245.39225769 C135.33142 256.24977513 113.95510675 261.29184744 91.38710022 261.27897644 C90.08504387 261.28401436 90.08504387 261.28401436 88.75668335 261.28915405 C85.92278059 261.29855777 83.08893748 261.30060121 80.25502014 261.30168152 C78.26825945 261.30489944 76.28149898 261.30826391 74.29473877 261.31176758 C70.14680939 261.31773087 65.99890077 261.31961017 61.85096741 261.3190155 C56.54506193 261.31891357 51.23928933 261.33261001 45.93341541 261.34978771 C41.83697907 261.36091715 37.7405749 261.36293448 33.64412498 261.36240578 C31.68777187 261.36358276 29.73141785 261.36798866 27.77507973 261.37573814 C25.04018969 261.38556522 22.30558894 261.38265018 19.57069397 261.37663269 C18.77000488 261.3822522 17.9693158 261.3878717 17.1443634 261.3936615 C12.28487262 261.36657237 8.28687132 260.6771899 3.67298889 259.13371277 C3.12580126 252.28409621 5.14358337 246.43795978 7.17298889 239.94621277 C7.83411777 237.80839257 8.49057247 235.66911975 9.14173889 233.52824402 C9.58163147 232.11829163 9.58163147 232.11829163 10.03041077 230.67985535 C10.8361227 227.92497629 10.8361227 227.92497629 10.67298889 224.13371277 C-12.72843603 240.72576025 -12.72843603 240.72576025 -34.48887634 259.25553894 C-38.21805423 261.72337253 -41.37476619 261.64131367 -45.69029236 261.52433777 C-46.48227524 261.51867798 -47.27425812 261.51301819 -48.09024048 261.50718689 C-50.60729205 261.48488585 -53.12289354 261.43470416 -55.63951111 261.38371277 C-57.35107902 261.36363952 -59.06266935 261.34539019 -60.77427673 261.32902527 C-64.95907596 261.28504202 -69.14279811 261.21606046 -73.32701111 261.13371277 C-73.06710388 260.14419617 -72.80719666 259.15467957 -72.53941345 258.13517761 C-71.25924581 253.25996031 -69.98039958 248.38439688 -68.70201111 243.50871277 C-68.46147003 242.59134338 -68.22092896 241.673974 -67.97309875 240.72880554 C-63.97011776 225.45677136 -60.00228657 210.17580381 -56.04728699 194.89128113 C-50.20360672 172.31180033 -44.29219671 149.7542842 -38.18812561 127.24362183 C-30.89410116 100.335786 -23.74380346 73.3936106 -16.7196846 46.41420364 C-16.07980433 43.95693928 -15.43934485 41.49982646 -14.79878235 39.04273987 C-13.7829389 35.14517094 -12.76904561 31.24709968 -11.75672722 27.34861374 C-11.38198444 25.90614547 -11.00676131 24.46380189 -10.63101387 23.021595 C-8.25560417 13.92202135 -8.25560417 13.92202135 -6.14830017 4.75749207 C-5.03113811 -0.17176965 -4.69911628 0.00964629 0 0 Z " fill="#FAFAFA" transform="translate(174.32701110839844,117.86628723144531)"/>
<path d="M0 0 C5.6871214 0.14633529 11.23141287 0.40931139 16.86940002 1.18296814 C32.07888129 3.21000364 47.46188502 2.8440988 62.77612305 2.91723633 C77.23794096 2.99933911 91.14811638 3.13660532 105.27734375 6.4609375 C106.19918457 6.66291748 107.12102539 6.86489746 108.07080078 7.07299805 C119.87685706 9.81746853 132.37647547 17.40330937 141.27734375 25.4609375 C141.92058594 26.03585938 142.56382812 26.61078125 143.2265625 27.203125 C147.17798954 30.93088635 149.81036559 34.62566031 152.27734375 39.4609375 C145.24146658 44.8577751 138.09015086 50.02425197 130.765625 55.02075195 C125.23926486 58.79161143 119.75296965 62.61682675 114.27734375 66.4609375 C108.29690284 70.65665434 102.30415324 74.83209468 96.27734375 78.9609375 C82.41052377 88.47407808 68.61210142 98.05602928 55.19213867 108.19458008 C54.07029175 109.03412231 54.07029175 109.03412231 52.92578125 109.890625 C51.93843994 110.63675049 51.93843994 110.63675049 50.93115234 111.39794922 C49.27734375 112.4609375 49.27734375 112.4609375 47.27734375 112.4609375 C50.48707044 98.90181157 54.39150153 85.57015903 58.33984375 72.2109375 C59.28238157 69.01857231 60.22388614 65.82591816 61.16246033 62.63238525 C61.74111585 60.6637106 62.32195929 58.69567701 62.90553284 56.72845459 C65.8496661 46.71701418 68.60679384 36.91226707 69.27734375 26.4609375 C60.28970698 25.56598214 51.29204824 24.99254492 42.27734375 24.4609375 C42.03298584 25.39534668 42.03298584 25.39534668 41.78369141 26.34863281 C39.83229881 33.66801553 37.6158939 40.89019285 35.32086182 48.10751343 C34.11823676 51.8914508 32.92402891 55.67803882 31.73046875 59.46484375 C31.33403671 60.7225634 31.33403671 60.7225634 30.92959595 62.00569153 C25.93167307 77.89052247 21.04410236 93.81017603 16.14035034 109.72427368 C15.45257397 111.94940648 14.76102506 114.17337718 14.06546021 116.39608765 C12.61321504 121.04670813 11.1910457 125.687486 9.96679688 130.40380859 C7.67652117 139.03593971 5.26961811 143.98723542 -2.47265625 148.7109375 C-3.30595459 149.27119629 -4.13925293 149.83145508 -4.99780273 150.40869141 C-6.71300672 151.55995047 -8.43959245 152.69443706 -10.17724609 153.81152344 C-14.12805502 156.37162944 -17.9496164 159.10757717 -21.78515625 161.8359375 C-22.49357666 162.3323877 -23.20199707 162.82883789 -23.93188477 163.34033203 C-28.4904383 166.53967641 -32.85970959 169.90151511 -37.1640625 173.4375 C-42.51493452 177.66918199 -48.14362258 181.53792823 -53.72265625 185.4609375 C-55.04247315 181.50148679 -53.95212821 178.68947549 -52.87890625 174.8046875 C-52.67485168 174.03980515 -52.47079712 173.27492279 -52.26055908 172.48686218 C-51.58899174 169.97607228 -50.90587725 167.46857893 -50.22265625 164.9609375 C-49.75077208 163.20636593 -49.27975023 161.45156223 -48.80957031 159.6965332 C-48.102239 157.05675337 -47.39431113 154.41715196 -46.6831665 151.77839661 C-45.14689253 146.07427076 -43.66755219 140.35832912 -42.2253418 134.62963867 C-38.48211748 119.80365354 -34.22089806 105.13128288 -29.98516846 90.44024658 C-25.92393124 76.34514359 -22.01781474 62.22528345 -18.34765625 48.0234375 C-15.51006748 37.06858262 -12.57538254 26.16492729 -9.28515625 15.3359375 C-8.96691895 14.2744751 -8.64868164 13.2130127 -8.32080078 12.11938477 C-8.02157715 11.15701904 -7.72235352 10.19465332 -7.4140625 9.203125 C-7.15826416 8.3766748 -6.90246582 7.55022461 -6.63891602 6.69873047 C-5.1365718 3.02953593 -4.04112848 0.68415088 0 0 Z " fill="#29292B" transform="translate(199.72265625,145.5390625)"/>
<path d="M0 0 C0.65161012 1.87300025 1.29602195 3.7485055 1.9375 5.625 C2.47697266 7.19121094 2.47697266 7.19121094 3.02734375 8.7890625 C10.29449913 32.77943085 3.82353211 59.98442174 -7.25 81.6875 C-12.73453968 91.40845654 -19.58382316 99.80814192 -27.375 107.75 C-27.87475342 108.26377197 -28.37450684 108.77754395 -28.8894043 109.30688477 C-31.53215884 111.91484861 -33.37570786 113.29154982 -37 114 C-37.59425781 112.89785156 -38.18851562 111.79570312 -38.80078125 110.66015625 C-43.54271604 101.94998605 -48.5018745 93.48362438 -53.95336914 85.19873047 C-58.14424915 78.82372441 -62.08687869 72.32446261 -65.95361328 65.74902344 C-67.00347394 63.99419334 -68.08790117 62.26557854 -69.18359375 60.5390625 C-70.17552734 58.94191406 -70.17552734 58.94191406 -71.1875 57.3125 C-71.77917969 56.38050781 -72.37085938 55.44851563 -72.98046875 54.48828125 C-74 52 -74 52 -73.30102539 50.02734375 C-71.82622524 47.72921269 -70.45198138 46.61220245 -68.203125 45.07421875 C-67.42018066 44.53249023 -66.63723633 43.99076172 -65.83056641 43.43261719 C-64.55318604 42.56878418 -64.55318604 42.56878418 -63.25 41.6875 C-61.92427979 40.77532715 -61.92427979 40.77532715 -60.57177734 39.84472656 C-57.72098246 37.88683725 -54.86141654 35.94232686 -52 34 C-50.09095464 32.69949936 -48.18209929 31.39871976 -46.2734375 30.09765625 C-43.45415464 28.17645531 -40.63422536 26.25626258 -37.81152344 24.34008789 C-32.6566384 20.83570265 -27.54903863 17.27999863 -22.5 13.625 C-17.82122373 10.2571852 -13.08478876 7.01265394 -8.25 3.875 C-7.65251953 3.48393066 -7.05503906 3.09286133 -6.43945312 2.68994141 C-2.24231196 0 -2.24231196 0 0 0 Z " fill="#252627" transform="translate(365,214)"/>
<path d="M0 0 C3.80263513 1.26754504 4.1272395 2.44186145 6.08203125 5.87109375 C6.97583496 7.42727417 6.97583496 7.42727417 7.88769531 9.01489258 C8.84047363 10.70908325 8.84047363 10.70908325 9.8125 12.4375 C10.47578531 13.6027149 11.1395285 14.76766928 11.80371094 15.93237305 C18.27757056 27.32940963 24.47832204 38.87542133 30.61230469 50.45825195 C31.5815846 52.23361669 32.6157459 53.97439928 33.69628906 55.68432617 C35 58 35 58 34.6875 60.3125 C34.460625 60.869375 34.23375 61.42625 34 62 C17.85231542 67.11645736 1.53838495 68.48777493 -15.31054688 68.33618164 C-18.15783305 68.31222373 -21.00419846 68.31569927 -23.8515625 68.32226562 C-25.695318 68.31669727 -27.53906965 68.30959273 -29.3828125 68.30078125 C-30.21732941 68.30169266 -31.05184631 68.30260406 -31.91165161 68.30354309 C-37.49514686 68.23692292 -42.60042493 67.41368359 -48 66 C-46.53003804 58.56418178 -44.29405314 51.57190989 -41.75 44.4375 C-41.38003906 43.35275391 -41.01007813 42.26800781 -40.62890625 41.15039062 C-37.49483682 32.34183712 -33.6193149 25.63548906 -26.1875 19.8125 C-25.25292969 19.07515625 -24.31835938 18.3378125 -23.35546875 17.578125 C-22.23779685 16.71768682 -21.11921789 15.85842627 -20 15 C-19.30213379 14.46052734 -18.60426758 13.92105469 -17.88525391 13.36523438 C-4.3055415 2.870361 -4.3055415 2.870361 0 0 Z " fill="#242526" transform="translate(264,283)"/>
<path d="M0 0 C1.31534494 3.65857532 0.65468309 6.08026481 -0.4375 9.75 C-0.72496094 10.73484375 -1.01242188 11.7196875 -1.30859375 12.734375 C-1.53675781 13.48203125 -1.76492187 14.2296875 -2 15 C-1.34 15.33 -0.68 15.66 0 16 C-1.65 16.99 -3.3 17.98 -5 19 C-3.83795007 12.45150687 -2.26616615 6.25461856 0 0 Z " fill="#151515" transform="translate(150,312)"/>
<path d="M0 0 C0.93423645 3.01031744 1.04449911 3.86650268 0 7 C1.32 6.67 2.64 6.34 4 6 C2.37660195 7.70884005 0.70680947 9.37446717 -1 11 C-1.66 11 -2.32 11 -3 11 C-2.69078116 9.54096742 -2.37751201 8.08279278 -2.0625 6.625 C-1.88847656 5.81289062 -1.71445313 5.00078125 -1.53515625 4.1640625 C-1 2 -1 2 0 0 Z " fill="#161517" transform="translate(250,247)"/>
<path d="M0 0 C0 0.99 0 1.98 0 3 C-4.29 2.67 -8.58 2.34 -13 2 C-13 1.67 -13 1.34 -13 1 C-8.59085217 -0.10228696 -4.51617599 -0.07654536 0 0 Z " fill="#313233" transform="translate(268,348)"/>
<path d="M0 0 C2 3.75 2 3.75 2 6 C1.01 6.495 1.01 6.495 0 7 C-0.73075648 9.3140622 -1.40138258 11.64828869 -2 14 C-2.33 14 -2.66 14 -3 14 C-2.48594831 9.03083364 -1.76615118 4.70973649 0 0 Z " fill="#2A2B2D" transform="translate(140,221)"/>
<path d="M0 0 C0 1.65 0 3.3 0 5 C-1.98 5 -3.96 5 -6 5 C-1.125 0 -1.125 0 0 0 Z " fill="#191919" transform="translate(186,341)"/>
</svg>
